<svg viewBox="0 0 2000 1000" xmlns="http://www.w3.org/2000/svg"><mask id="b" x="0" y="0" width="2000" height="1000"><path fill="url(#a)" d="M0 0h2000v1000H0z"/></mask><path fill="#fff" d="M0 0h2000v1000H0z"/><g style="transform-origin:center center" stroke="#eaeaea" strokeWidth="2" mask="url(#b)"><path fill="none" d="M0 0h100v100H0zM100 0h100v100H100zM200 0h100v100H200z"/><path fill="#eaeaea08" d="M300 0h100v100H300z"/><path fill="none" d="M400 0h100v100H400z"/><path fill="#eaeaea15" d="M500 0h100v100H500z"/><path fill="none" d="M600 0h100v100H600zM700 0h100v100H700z"/><path fill="#eaeaea2f" d="M800 0h100v100H800z"/><path fill="none" d="M900 0h100v100H900z"/><path fill="#eaeaea91" d="M1000 0h100v100h-100z"/><path fill="none" d="M1100 0h100v100h-100zM1200 0h100v100h-100zM1300 0h100v100h-100zM1400 0h100v100h-100zM1500 0h100v100h-100zM1600 0h100v100h-100zM1700 0h100v100h-100z"/><path fill="#eaeaea6b" d="M1800 0h100v100h-100z"/><path fill="none" d="M1900 0h100v100h-100zM0 100h100v100H0z"/><path fill="#eaeaeab5" d="M100 100h100v100H100z"/><path fill="#eaeaeabd" d="M200 100h100v100H200z"/><path fill="none" d="M300 100h100v100H300zM400 100h100v100H400zM500 100h100v100H500zM600 100h100v100H600zM700 100h100v100H700zM800 100h100v100H800z"/><path fill="#eaeaeaf5" d="M900 100h100v100H900z"/><path fill="#eaeaea12" d="M1000 100h100v100h-100z"/><path fill="none" d="M1100 100h100v100h-100zM1200 100h100v100h-100zM1300 100h100v100h-100zM1400 100h100v100h-100zM1500 100h100v100h-100zM1600 100h100v100h-100zM1700 100h100v100h-100z"/><path fill="#eaeaea1f" d="M1800 100h100v100h-100z"/><path fill="none" d="M1900 100h100v100h-100z"/><path fill="#eaeaea70" d="M0 200h100v100H0z"/><path fill="none" d="M100 200h100v100H100zM200 200h100v100H200zM300 200h100v100H300z"/><path fill="#eaeaea75" d="M400 200h100v100H400z"/><path fill="none" d="M500 200h100v100H500zM600 200h100v100H600z"/><path fill="#eaeaea56" d="M700 200h100v100H700z"/><path fill="none" d="M800 200h100v100H800zM900 200h100v100H900zM1000 200h100v100h-100z"/><path fill="#eaeaeae9" d="M1100 200h100v100h-100z"/><path fill="none" d="M1200 200h100v100h-100zM1300 200h100v100h-100zM1400 200h100v100h-100z"/><path fill="#eaeaeaad" d="M1500 200h100v100h-100z"/><path fill="#eaeaeab9" d="M1600 200h100v100h-100z"/><path fill="none" d="M1700 200h100v100h-100z"/><path fill="#eaeaea69" d="M1800 200h100v100h-100z"/><path fill="none" d="M1900 200h100v100h-100zM0 300h100v100H0z"/><path fill="#eaeaea71" d="M100 300h100v100H100z"/><path fill="#eaeaea93" d="M200 300h100v100H200z"/><path fill="#eaeaeac2" d="M300 300h100v100H300z"/><path fill="none" d="M400 300h100v100H400zM500 300h100v100H500zM600 300h100v100H600zM700 300h100v100H700zM800 300h100v100H800zM900 300h100v100H900z"/><path fill="#eaeaea26" d="M1000 300h100v100h-100z"/><path fill="none" d="M1100 300h100v100h-100z"/><path fill="#eaeaeac4" d="M1200 300h100v100h-100z"/><path fill="none" d="M1300 300h100v100h-100z"/><path fill="#eaeaea91" d="M1400 300h100v100h-100z"/><path fill="#eaeaea04" d="M1500 300h100v100h-100z"/><path fill="none" d="M1600 300h100v100h-100zM1700 300h100v100h-100zM1800 300h100v100h-100zM1900 300h100v100h-100z"/><path fill="#eaeaeaf1" d="M0 400h100v100H0z"/><path fill="none" d="M100 400h100v100H100zM200 400h100v100H200zM300 400h100v100H300zM400 400h100v100H400zM500 400h100v100H500zM600 400h100v100H600zM700 400h100v100H700zM800 400h100v100H800zM900 400h100v100H900zM1000 400h100v100h-100zM1100 400h100v100h-100zM1200 400h100v100h-100zM1300 400h100v100h-100zM1400 400h100v100h-100zM1500 400h100v100h-100zM1600 400h100v100h-100zM1700 400h100v100h-100zM1800 400h100v100h-100zM1900 400h100v100h-100z"/><path fill="#eaeaea9d" d="M0 500h100v100H0z"/><path fill="none" d="M100 500h100v100H100zM200 500h100v100H200z"/><path fill="#eaeaea1a" d="M300 500h100v100H300z"/><path fill="none" d="M400 500h100v100H400zM500 500h100v100H500zM600 500h100v100H600zM700 500h100v100H700z"/><path fill="#eaeaea65" d="M800 500h100v100H800z"/><path fill="none" d="M900 500h100v100H900zM1000 500h100v100h-100zM1100 500h100v100h-100zM1200 500h100v100h-100zM1300 500h100v100h-100zM1400 500h100v100h-100zM1500 500h100v100h-100z"/><path fill="#eaeaea5e" d="M1600 500h100v100h-100z"/><path fill="none" d="M1700 500h100v100h-100zM1800 500h100v100h-100zM1900 500h100v100h-100zM0 600h100v100H0zM100 600h100v100H100zM200 600h100v100H200z"/><path fill="#eaeaea0f" d="M300 600h100v100H300z"/><path fill="none" d="M400 600h100v100H400zM500 600h100v100H500z"/><path fill="#eaeaea22" d="M600 600h100v100H600z"/><path fill="none" d="M700 600h100v100H700z"/><path fill="#eaeaea2c" d="M800 600h100v100H800z"/><path fill="none" d="M900 600h100v100H900zM1000 600h100v100h-100z"/><path fill="#eaeaea70" d="M1100 600h100v100h-100z"/><path fill="none" d="M1200 600h100v100h-100z"/><path fill="#eaeaeae0" d="M1300 600h100v100h-100z"/><path fill="none" d="M1400 600h100v100h-100zM1500 600h100v100h-100zM1600 600h100v100h-100zM1700 600h100v100h-100zM1800 600h100v100h-100zM1900 600h100v100h-100z"/><path fill="#eaeaea7c" d="M0 700h100v100H0z"/><path fill="none" d="M100 700h100v100H100z"/><path fill="#eaeaea8e" d="M200 700h100v100H200z"/><path fill="#eaeaea4f" d="M300 700h100v100H300z"/><path fill="none" d="M400 700h100v100H400z"/><path fill="#eaeaea7c" d="M500 700h100v100H500z"/><path fill="none" d="M600 700h100v100H600zM700 700h100v100H700z"/><path fill="#eaeaea14" d="M800 700h100v100H800z"/><path fill="none" d="M900 700h100v100H900zM1000 700h100v100h-100z"/><path fill="#eaeaeaad" d="M1100 700h100v100h-100z"/><path fill="#eaeaea44" d="M1200 700h100v100h-100z"/><path fill="none" d="M1300 700h100v100h-100z"/><path fill="#eaeaeafe" d="M1400 700h100v100h-100z"/><path fill="none" d="M1500 700h100v100h-100zM1600 700h100v100h-100zM1700 700h100v100h-100zM1800 700h100v100h-100z"/><path fill="#eaeaea54" d="M1900 700h100v100h-100z"/><path fill="#eaeaea65" d="M0 800h100v100H0z"/><path fill="none" d="M100 800h100v100H100z"/><path fill="#eaeaea94" d="M200 800h100v100H200z"/><path fill="none" d="M300 800h100v100H300zM400 800h100v100H400zM500 800h100v100H500zM600 800h100v100H600zM700 800h100v100H700zM800 800h100v100H800zM900 800h100v100H900zM1000 800h100v100h-100zM1100 800h100v100h-100z"/><path fill="#eaeaea23" d="M1200 800h100v100h-100z"/><path fill="#eaeaea25" d="M1300 800h100v100h-100z"/><path fill="none" d="M1400 800h100v100h-100zM1500 800h100v100h-100zM1600 800h100v100h-100zM1700 800h100v100h-100zM1800 800h100v100h-100zM1900 800h100v100h-100zM0 900h100v100H0zM100 900h100v100H100zM200 900h100v100H200zM300 900h100v100H300z"/><path fill="#eaeaea34" d="M400 900h100v100H400z"/><path fill="none" d="M500 900h100v100H500z"/><path fill="#eaeaea7b" d="M600 900h100v100H600z"/><path fill="none" d="M700 900h100v100H700z"/><path fill="#eaeaea60" d="M800 900h100v100H800z"/><path fill="none" d="M900 900h100v100H900zM1000 900h100v100h-100z"/><path fill="#eaeaea9a" d="M1100 900h100v100h-100z"/><path fill="none" d="M1200 900h100v100h-100zM1300 900h100v100h-100zM1400 900h100v100h-100zM1500 900h100v100h-100zM1600 900h100v100h-100zM1700 900h100v100h-100zM1800 900h100v100h-100zM1900 900h100v100h-100z"/></g><defs><radialGradient id="a"><stop offset="0" stop-color="#fff"/><stop offset="1" stop-color="#fff" stop-opacity="0"/></radialGradient></defs></svg>